 http://www.imdb.com/title/tt1127886/

Format : MPEG-4
Format profile : Base Media
Codec ID : isom
File size : 870 MiB
Duration : 2h 6mn
Overall bit rate mode : Variable
Overall bit rate : 961 Kbps
Movie name : Here
Performer : Braden King
Genre : Drama
Recorded date : UTC 2012-07-17 07:00:00
Tagged date : UTC 2012-07-17 14:37:07
Cover : Yes
desc : Set against the gorgeous landscape of Armenia, HERE chronicles a brief but intense relationship
ldes : Set against the gorgeous landscape of Armenia, HERE chronicles a brief but intense relationship between an American satellite-mapping engineer (Foster) and an expatriate photographer (Azabal) who impulsively decide to travel across the remote countryside together. As their trip comes to an end, the two must decide where to go from HERE.

Video
ID : 2
Format : AVC
Format/Info : Advanced Video Codec
Format profile : High@L3.0
Format settings, CABAC : Yes
Format settings, ReFrames : 4 frames
Codec ID : avc1
Codec ID/Info : Advanced Video Coding
Duration : 2h 6mn
Bit rate : 803 Kbps
Width : 720 pixels
Height : 300 pixels
Display aspect ratio : 2.40:1
Frame rate mode : Constant
Frame rate : 23.976 fps
Color space : YUV
Chroma subsampling : 4:2:0
Bit depth : 8 bits
Scan type : Progressive
Bits/(Pixel*Frame) : 0.155
Stream size : 727 MiB (84%)
Writing library : x264 core 114 r1924 08d04a4
Encoding settings : cabac=1 / ref=1 / deblock=1:0:0 / analyse=0x3:0x3 / me=dia / subme=1 / psy=1 / psy_rd=0.00:0.00 / mixed_ref=0 / me_range=16 / chroma_me=0 / trellis=2 / 8x8dct=1 / cqm=0 / deadzone=21,11 / fast_pskip=1 / chroma_qp_offset=0 / threads=1 / sliced_threads=0 / nr=0 / decimate=1 / interlaced=0 / constrained_intra=0 / bframes=3 / b_pyramid=2 / b_adapt=1 / b_bias=0 / direct=1 / weightb=1 / open_gop=0 / weightp=0 / keyint=300 / keyint_min=25 / scenecut=40 / intra_refresh=0 / rc=crf / mbtree=0 / crf=22.0 / qcomp=0.60 / qpmin=10 / qpmax=51 / qpstep=4 / ip_ratio=1.41 / pb_ratio=1.25 / aq=1:1.00

Audio
ID : 1
Format : AAC
Format/Info : Advanced Audio Codec
Format profile : LC
Codec ID : 40
Duration : 2h 6mn
Bit rate mode : Variable
Bit rate : 152 Kbps
Maximum bit rate : 249 Kbps
Channel(s) : 2 channels
Channel positions : Front: L R
Sampling rate : 44.1 KHz
Compression mode : Lossy
Stream size : 137 MiB (16%)
 
http://www.shotpix.com/images/02973393377869674615.png 
http://www.shotpix.com/images/59675080693652405537.png 
http://www.shotpix.com/images/87203121692322873856.png 
http://www.shotpix.com/images/33295038731201691340.png